<svg id="Layer_5" enable-background="new 0 0 64 64" height="512" viewBox="0 0 64 64" width="512" xmlns="http://www.w3.org/2000/svg" xmlns:xlink="http://www.w3.org/1999/xlink"><linearGradient id="SVGID_1_" gradientUnits="userSpaceOnUse" x1="32" x2="32" y1="63" y2="1"><stop offset="0" stop-color="#9f2fff"/><stop offset="1" stop-color="#0bb1d3"/></linearGradient><path d="m60 15h-13v-7h-11.142c-.447-1.721-1.999-3-3.858-3s-3.411 1.279-3.858 3h-7.142v-7h-16v16h7v4h-8c-1.654 0-3 1.346-3 3v16c0 1.654 1.346 3 3 3h8v4h-7v16h16v-7h7.142c.447 1.721 1.999 3 3.858 3s3.411-1.279 3.858-3h11.142v-7h13c1.654 0 3-1.346 3-3v-28c0-1.654-1.346-3-3-3zm1 3v5h-30v-5c0-.552.448-1 1-1h28c.552 0 1 .448 1 1zm-29-11c1.103 0 2 .897 2 2s-.897 2-2 2-2-.897-2-2 .897-2 2-2zm-25-4h12v12h-12zm-3 20h19c.552 0 1 .448 1 1v3h-21v-3c0-.552.448-1 1-1zm-1 17v-11h21v11c0 .552-.448 1-1 1h-19c-.552 0-1-.448-1-1zm16 21h-12v-12h12zm13-4c-1.103 0-2-.897-2-2s.897-2 2-2 2 .897 2 2-.897 2-2 2zm13-3h-9.142c-.447-1.721-1.999-3-3.858-3s-3.411 1.279-3.858 3h-7.142v-7h-7v-4h9c1.654 0 3-1.346 3-3v-16c0-1.654-1.346-3-3-3h-9v-4h7v-7h7.142c.447 1.721 1.999 3 3.858 3s3.411-1.279 3.858-3h9.142v5h-13c-1.654 0-3 1.346-3 3v28c0 1.654 1.346 3 3 3h13zm15-7h-28c-.552 0-1-.448-1-1v-21h30v21c0 .552-.448 1-1 1zm-21-26h-2v-2h2zm-4 0h-2v-2h2zm8 0h-2v-2h2zm-10 14h10v-8h-10zm2-6h6v4h-6zm-2 16h10v-8h-10zm2-6h6v4h-6zm12-10h-2v-2h2zm2-2h10v2h-10zm-4 4h14v2h-14zm0 6h14v2h-14zm0 4h14v2h-14zm-36-36h8v2h-8zm0 4h8v2h-8zm8 44h-8v-2h8zm0 4h-8v-2h8z" fill="url(#SVGID_1_)"/></svg>